# xmcd CD database file
#
# Track frame offsets:
#	150
#	20115
#	41505
#	66097
#	90052
#	112152
#	140460
#	165985
#
# Disc length: 2602 seconds
#
# Revision: 0
# Processed by: cddbd v1.5.2PL0 Copyright (c) Steve Scherf et al.
# Submitted via: CDex 1.70beta2
#
DISCID=600a2808
DTITLE=New Inspiration - Soul of the Earth
DYEAR=1998
DGENRE=New Age
TTITLE0=Soul of the Earth
TTITLE1=Rain Dance
TTITLE2=Harvest
TTITLE3=Sinarah
TTITLE4=Magheda Mamuere
TTITLE5=Kalahari Desert
TTITLE6=The Rain Queen
TTITLE7=Ma
EXTD=YEAR: 1998
EXTT0=
EXTT1=
EXTT2=
EXTT3=
EXTT4=
EXTT5=
EXTT6=
EXTT7=
PLAYORDER=
